
Scooby and the gang took their vacation to Little Moose. They were forced to head to Big Moose for their much better summer vacation. During the time, many things are very mysterious, as a story of the Woodsman comes to life who takes over Little Moose scaring people. It also forces on the Fishman in Big Moose scaring people away.

Genre:Animation
Language:English  http://en.wikipedia.org/wiki/Scooby-Doo!_Camp_Scare  http://www.amazon.com/Scooby-Doo-Artist-Not-Provided/dp/B003T8FLTK/ref=sr_1_1?s=dvd
Source:DVDR-KART3LDVD
 
http://www.starshare.ro/bitbucket/vlcsnap2010-09-21-17h50m45s138.jpg 
http://www.starshare.ro/bitbucket/vlcsnap2010-09-21-17h50m49s189.jpg 
http://www.starshare.ro/bitbucket/vlcsnap2010-09-21-17h50m54s231.jpg 
http://www.starshare.ro/bitbucket/vlcsnap2010-09-21-17h51m03s72.jpg 
http://www.starshare.ro/bitbucket/vlcsnap2010-09-21-17h51m18s218.jpg

General
Complete name :Scooby Doo Camp Scare 2010 DvDRip XviD Ac3 Feel-Free
Format : AVI
Format/Info : Audio Video Interleave
File size : 1.20 GiB
Duration : 1h 12mn
Overall bit rate : 2 375 Kbps
Video #0
Muxing mode : Packed bitstream
Codec ID : XVID
Codec ID/Hint : XviD
Duration : 1h 12mn
Bit rate : 1 982 Kbps
Width : 652 pixels
Height : 352 pixels
Display aspect ratio : 1.852
Frame rate : 23.976 fps
Resolution : 24 bits
Colorimetry : 4:2:0
Scan type : Progressive
Bits/(Pixel*Frame) : 0.360
Stream size : 1.00 GiB (83%)
Writing library : XviD 1.2.1 (UTC 2008-12-04)
Audio #1
ID : 1
Format : AC-3
Format/Info : Audio Coding 3
Codec ID : 2000
Duration : 1h 12mn
Bit rate mode : Constant
Bit rate : 384 Kbps
Channel(s) : 6 channels
Channel positions : Front: L C R, Surround: L R, LFE
Sampling rate : 48.0 KHz
Video delay : 16ms
Stream size : 199 MiB (16%)
Alignment : Split accross interleaves
Interleave, duration : 42 ms (1.00 video frame)
Interleave, preload duration : 500 ms 